<?xml version="1.0" standalone="no"?>
<!DOCTYPE svg PUBLIC "-//W3C//DTD SVG 20010904//EN"
 "http://www.w3.org/TR/2001/REC-SVG-20010904/DTD/svg10.dtd">
<svg version="1.0" xmlns="http://www.w3.org/2000/svg"
 width="512.000000pt" height="512.000000pt" viewBox="0 0 512.000000 512.000000"
 preserveAspectRatio="xMidYMid meet">

<g transform="translate(0.000000,512.000000) scale(0.100000,-0.100000)"
fill="#000000" stroke="none">
<path d="M2049 5104 c-42 -7 -114 -27 -161 -44 -251 -91 -471 -311 -559 -559
-52 -146 -59 -215 -59 -547 l0 -304 -395 0 -395 0 0 -1825 0 -1825 2080 0
2080 0 0 1825 0 1825 -512 2 -513 3 -6 350 -5 350 -28 85 c-120 363 -383 596
-751 665 -93 18 -254 16 -338 -4 -24 -6 -68 -4 -130 5 -113 17 -208 17 -308
-2z m34 -193 c-154 -128 -254 -274 -311 -451 -37 -114 -42 -176 -42 -497 l0
-313 -150 0 -150 0 0 305 c0 234 4 323 15 379 63 305 301 543 610 611 90 20
91 19 28 -34z m791 22 c263 -65 483 -287 558 -562 19 -68 22 -112 26 -398 l4
-323 -151 0 -151 0 0 265 c0 146 -5 309 -11 362 -28 257 -157 485 -364 650
l-40 32 35 -5 c19 -4 62 -13 94 -21z m-317 -54 c203 -98 353 -279 419 -504 14
-50 18 -115 21 -392 l5 -333 -562 0 -562 0 5 323 c5 355 9 385 73 525 84 185
241 335 430 411 57 23 64 22 171 -30z m-1287 -1549 l0 -161 78 3 77 3 3 158 3
157 784 0 785 0 0 -160 0 -160 80 0 80 0 0 160 0 160 315 0 315 0 0 -1420 0
-1420 -1578 2 -1577 3 -3 1418 -2 1417 320 0 320 0 0 -160z m2870 -1353 l0
-1512 -95 -95 -95 -95 0 1608 0 1607 95 0 95 0 0 -1513z m350 -97 c0 -886 -4
-1610 -8 -1610 -5 0 -50 42 -100 94 l-92 93 0 1517 0 1516 100 0 100 0 0
-1610z m-700 -1555 l0 -165 -1580 0 -1580 0 0 165 0 165 1580 0 1580 0 0 -165z
m500 -90 l74 -75 -154 0 -154 0 74 75 c41 41 77 75 80 75 3 0 39 -34 80 -75z"/>
</g>
</svg>
